<svg width="24" height="24" viewBox="0 0 24 24" fill="none" xmlns="http://www.w3.org/2000/svg">
<path d="M11.625 0C5.20312 0 0 5.20312 0 11.625C0 18.0469 5.20312 23.25 11.625 23.25C18.0469 23.25 23.25 18.0469 23.25 11.625C23.25 5.20312 18.0469 0 11.625 0ZM4.2375 8.23125C4.55156 7.40625 5.48906 6.97969 6.34219 7.20469L6.675 7.29375L6.76875 6.96094C7.00312 6.1125 7.8375 5.5125 8.71406 5.65313C9.71719 5.8125 10.3266 6.7875 10.0641 7.73906L9.15469 11.0156C9.09844 11.2266 8.87813 11.3531 8.6625 11.2969L5.37187 10.4438C4.41563 10.1906 3.87656 9.17813 4.2375 8.23125ZM11.625 19.875C8.78438 19.875 5.32031 18.0797 4.88437 15.5016C4.79062 14.9484 5.31563 14.4937 5.85469 14.6625C7.27031 15.1172 9.375 15.375 11.625 15.375C13.875 15.375 15.9797 15.1172 17.3953 14.6625C17.9297 14.4937 18.4547 14.9484 18.3656 15.5016C17.9297 18.0797 14.4656 19.875 11.625 19.875ZM17.8781 10.4391L14.5875 11.2922C14.3766 11.3484 14.1563 11.2219 14.0953 11.0109L13.1859 7.73438C12.9234 6.78281 13.5328 5.80781 14.5359 5.64844C15.4078 5.50781 16.2422 6.10781 16.4813 6.95625L16.575 7.28906L16.9078 7.2C17.7609 6.97969 18.6984 7.40156 19.0125 8.22656C19.3734 9.17813 18.8344 10.1906 17.8781 10.4391Z" fill="#344052"/>
</svg>
