<svg width="21" height="24" viewBox="0 0 21 24" fill="none" xmlns="http://www.w3.org/2000/svg">
<path d="M16.5 15C15.4403 15 14.4662 15.3665 13.6973 15.9795L8.89331 12.9769C9.03558 12.3334 9.03558 11.6666 8.89331 11.023L13.6973 8.0205C14.4662 8.63348 15.4403 9 16.5 9C18.9853 9 21 6.98527 21 4.5C21 2.01473 18.9853 0 16.5 0C14.0147 0 12 2.01473 12 4.5C12 4.83553 12.037 5.16234 12.1067 5.47692L7.30266 8.47945C6.53377 7.86652 5.55975 7.5 4.5 7.5C2.01473 7.5 0 9.51473 0 12C0 14.4853 2.01473 16.5 4.5 16.5C5.55975 16.5 6.53377 16.1335 7.30266 15.5205L12.1067 18.5231C12.0357 18.8439 11.9999 19.1714 12 19.5C12 21.9853 14.0147 24 16.5 24C18.9853 24 21 21.9853 21 19.5C21 17.0147 18.9853 15 16.5 15Z" fill="#344052"/>
</svg>
