<svg width="100" height="104" viewBox="0 0 100 104" fill="none" xmlns="http://www.w3.org/2000/svg">
<g clip-path="url(#clip0)">
<path d="M22.7029 36.2558L18.9125 38.7418L58.3878 98.9293L62.1783 96.4433L22.7029 36.2558Z" fill="#E6E6E6"/>
<path d="M13.6789 13.6056L22.4487 26.9769C22.6186 27.2358 22.6786 27.5516 22.6156 27.8548C22.5526 28.158 22.3717 28.4237 22.1128 28.5935C21.8538 28.7634 21.538 28.8234 21.2348 28.7604C20.9317 28.6974 20.6659 28.5165 20.4961 28.2576L10.4141 12.8857C9.04564 12.7714 7.67013 12.9973 6.41009 13.5433L17.3948 30.2916C17.5646 30.5505 17.6245 30.8663 17.5614 31.1694C17.4984 31.4725 17.3175 31.7382 17.0587 31.908C16.7998 32.0778 16.484 32.1378 16.1809 32.0748C15.8778 32.0119 15.6121 31.8311 15.4422 31.5723L4.45744 14.824C3.45462 15.7622 2.69938 16.9338 2.25895 18.2345L12.3409 33.6063C12.5106 33.8653 12.5706 34.181 12.5075 34.4841C12.4445 34.7872 12.2636 35.0529 12.0048 35.2227C11.7459 35.3925 11.4301 35.4525 11.127 35.3896C10.8239 35.3266 10.5582 35.1458 10.3883 34.887L1.61845 21.5158C1.3932 25.244 2.60875 29.6629 5.27275 33.7247C10.2239 41.2736 18.3002 44.7287 23.3116 41.4418C28.3231 38.1549 28.372 29.3707 23.4209 21.8218C20.7569 17.7601 17.1882 14.8845 13.6789 13.6056Z" fill="#E6E6E6"/>
<path d="M39.6978 28.022H35.1648V100H39.6978V28.022Z" fill="#E6E6E6"/>
<path d="M37.3626 32.6923C43.3558 32.6923 48.2143 25.3739 48.2143 16.3462C48.2143 7.31842 43.3558 0 37.3626 0C31.3694 0 26.511 7.31842 26.511 16.3462C26.511 25.3739 31.3694 32.6923 37.3626 32.6923Z" fill="#E6E6E6"/>
<path d="M37.3626 29.7955C42.2937 29.7955 46.2912 23.774 46.2912 16.3461C46.2912 8.91822 42.2937 2.89673 37.3626 2.89673C32.4315 2.89673 28.434 8.91822 28.434 16.3461C28.434 23.774 32.4315 29.7955 37.3626 29.7955Z" fill="#CCCCCC"/>
<path d="M50 103.693C77.6142 103.693 100 102.409 100 100.824C100 99.2398 77.6142 97.9553 50 97.9553C22.3858 97.9553 0 99.2398 0 100.824C0 102.409 22.3858 103.693 50 103.693Z" fill="#E6E6E6"/>
<path d="M79.5697 100.782C60.8317 97.4045 41.6408 97.4045 22.9027 100.782C22.6051 100.836 22.2992 100.824 22.0068 100.747C21.7143 100.67 21.4423 100.529 21.21 100.335C20.9777 100.142 20.7908 99.8992 20.6624 99.6253C20.534 99.3513 20.4673 99.0526 20.467 98.7501V73.0769H82.0055V98.7501C82.0052 99.0526 81.9385 99.3513 81.8101 99.6253C81.6817 99.8992 81.4948 100.142 81.2625 100.335C81.0302 100.529 80.7582 100.67 80.4657 100.747C80.1732 100.824 79.8674 100.836 79.5697 100.782Z" fill="#40CC8B"/>
<path d="M76.3736 54.1209C74.9527 54.1196 73.5416 54.3557 72.1985 54.8195C70.2395 50.5705 67.1092 46.9685 63.1749 44.436C59.2407 41.9036 54.6657 40.5459 49.9869 40.5223C45.3081 40.4986 40.7197 41.81 36.76 44.3026C32.8004 46.7951 29.6338 50.3654 27.632 54.5944C25.6608 54.0414 23.5856 53.9703 21.5812 54.3869C19.5768 54.8036 17.7019 55.6959 16.1144 56.9886C14.5269 58.2814 13.2734 59.9367 12.4593 61.8151C11.6453 63.6936 11.2946 65.7402 11.4368 67.7825C11.5791 69.8248 12.21 71.803 13.2766 73.5505C14.3432 75.298 15.8141 76.7636 17.5654 77.8238C19.3168 78.884 21.2973 79.5078 23.3401 79.6426C25.3829 79.7774 27.4282 79.4193 29.3037 78.5985C31.5578 82.0334 34.6367 84.8489 38.2591 86.7877C41.8815 88.7264 45.9319 89.7267 50.0404 89.6972C54.1488 89.6676 58.1844 88.6091 61.7785 86.6184C65.3726 84.6278 68.4107 81.7683 70.6152 78.3012C72.3375 79.1707 74.2344 79.6388 76.1635 79.6704C78.0926 79.702 80.0037 79.2963 81.7536 78.4837C83.5035 77.6711 85.0466 76.4727 86.2671 74.9785C87.4876 73.4843 88.3539 71.733 88.8008 69.8562C89.2478 67.9793 89.2639 66.0256 88.8478 64.1417C88.4318 62.2577 87.5945 60.4925 86.3987 58.9784C85.2029 57.4643 83.6798 56.2407 81.9435 55.3994C80.2072 54.5581 78.303 54.121 76.3736 54.1209Z" fill="#40CC8B"/>
<path d="M25.4121 65.11H25.1373C25.128 61.4523 25.9375 57.839 27.5065 54.535L27.7548 54.6527C26.2032 57.9199 25.4027 61.493 25.4121 65.11Z" fill="#344052"/>
<path d="M74.5879 65.1099H74.3132C74.3217 61.5763 73.5578 58.0836 72.075 54.8762L72.3245 54.7611C73.824 58.0046 74.5965 61.5366 74.5879 65.1099Z" fill="#344052"/>
<path d="M20.5001 85.0234L20.4339 84.7568C20.5114 84.7376 28.3189 82.82 39.7608 81.8685C50.3214 80.9904 66.2288 80.7786 82.039 84.7569L81.9719 85.0233C66.2005 81.0549 50.3278 81.2658 39.7894 82.1419C28.368 83.0912 20.5775 85.0042 20.5001 85.0234Z" fill="#344052"/>
<path d="M20.5001 88.7323L20.4339 88.4656C20.5114 88.4464 28.3189 86.5288 39.7608 85.5774C50.3214 84.6993 66.2288 84.4875 82.039 88.4657L81.9719 88.7322C66.2005 84.7638 50.3278 84.9749 39.7894 85.8508C28.368 86.8001 20.5775 88.7131 20.5001 88.7323Z" fill="#344052"/>
<path d="M20.5001 92.441L20.4339 92.1744C20.5114 92.1552 28.3189 90.2376 39.7608 89.2861C50.3214 88.408 66.2288 88.1962 82.039 92.1745L81.9719 92.4409C66.2005 88.4725 50.3278 88.6837 39.7894 89.5595C28.368 90.5088 20.5775 92.4218 20.5001 92.441Z" fill="#344052"/>
<path d="M13.1711 100.015C10.1722 101.891 7.1732 101.89 4.17423 100.013C4.0793 99.9545 4.00219 99.8712 3.95131 99.772C3.90042 99.6728 3.8777 99.5615 3.8856 99.4503L4.82137 87.2853H12.3901L13.4592 99.446C13.4684 99.5583 13.4464 99.6709 13.3955 99.7713C13.3447 99.8718 13.267 99.9563 13.1711 100.015Z" fill="#344052"/>
<path d="M8.5709 88.799C10.6802 88.799 12.3902 88.1829 12.3902 87.4229C12.3902 86.6629 10.6802 86.0468 8.5709 86.0468C6.46157 86.0468 4.75162 86.6629 4.75162 87.4229C4.75162 88.1829 6.46157 88.799 8.5709 88.799Z" fill="#344052"/>
<path d="M11.5645 86.9584C9.57435 88.3584 7.64775 88.3584 5.78473 86.9584V84.7566H11.5645V86.9584Z" fill="#40CC8B"/>
<path d="M8.67462 85.8575C10.2707 85.8575 11.5645 85.3646 11.5645 84.7566C11.5645 84.1485 10.2707 83.6556 8.67462 83.6556C7.07858 83.6556 5.78473 84.1485 5.78473 84.7566C5.78473 85.3646 7.07858 85.8575 8.67462 85.8575Z" fill="#40CC8B"/>
<path d="M8.81221 84.7566C8.96422 84.7566 9.08744 84.6949 9.08744 84.6189C9.08744 84.5429 8.96422 84.4813 8.81221 84.4813C8.66021 84.4813 8.53699 84.5429 8.53699 84.6189C8.53699 84.6949 8.66021 84.7566 8.81221 84.7566Z" fill="#E6E6E6"/>
<path d="M10.1118 84.7566C10.2638 84.7566 10.387 84.6949 10.387 84.6189C10.387 84.5429 10.2638 84.4813 10.1118 84.4813C9.95977 84.4813 9.83655 84.5429 9.83655 84.6189C9.83655 84.6949 9.95977 84.7566 10.1118 84.7566Z" fill="#E6E6E6"/>
<path d="M9.46196 85.0815C9.61397 85.0815 9.73719 85.0199 9.73719 84.9439C9.73719 84.8679 9.61397 84.8063 9.46196 84.8063C9.30996 84.8063 9.18674 84.8679 9.18674 84.9439C9.18674 85.0199 9.30996 85.0815 9.46196 85.0815Z" fill="#E6E6E6"/>
<path d="M6.86284 85.0815C7.01485 85.0815 7.13807 85.0199 7.13807 84.9439C7.13807 84.8679 7.01485 84.8063 6.86284 84.8063C6.71084 84.8063 6.58762 84.8679 6.58762 84.9439C6.58762 85.0199 6.71084 85.0815 6.86284 85.0815Z" fill="#E6E6E6"/>
<path d="M7.51265 84.7566C7.66466 84.7566 7.78788 84.6949 7.78788 84.6189C7.78788 84.5429 7.66466 84.4813 7.51265 84.4813C7.36065 84.4813 7.23743 84.5429 7.23743 84.6189C7.23743 84.6949 7.36065 84.7566 7.51265 84.7566Z" fill="#E6E6E6"/>
<path d="M8.1624 85.244C8.3144 85.244 8.43763 85.1824 8.43763 85.1064C8.43763 85.0304 8.3144 84.9688 8.1624 84.9688C8.0104 84.9688 7.88718 85.0304 7.88718 85.1064C7.88718 85.1824 8.0104 85.244 8.1624 85.244Z" fill="#E6E6E6"/>
<path d="M96.2755 100.015C93.2766 101.891 90.2776 101.89 87.2787 100.013C87.1837 99.9545 87.1066 99.8712 87.0557 99.772C87.0049 99.6728 86.9821 99.5615 86.99 99.4503L87.9258 87.2853H95.4946L96.5636 99.446C96.5729 99.5583 96.5508 99.6709 96.5 99.7713C96.4491 99.8718 96.3714 99.9563 96.2755 100.015Z" fill="#344052"/>
<path d="M91.6753 88.799C93.7846 88.799 95.4946 88.1829 95.4946 87.4229C95.4946 86.6629 93.7846 86.0468 91.6753 86.0468C89.566 86.0468 87.856 86.6629 87.856 87.4229C87.856 88.1829 89.566 88.799 91.6753 88.799Z" fill="#344052"/>
<path d="M94.6689 86.9584C92.6787 88.3584 90.7521 88.3584 88.8891 86.9584V84.7566H94.6689V86.9584Z" fill="#40CC8B"/>
<path d="M91.779 85.8575C93.375 85.8575 94.6689 85.3646 94.6689 84.7566C94.6689 84.1485 93.375 83.6556 91.779 83.6556C90.1829 83.6556 88.8891 84.1485 88.8891 84.7566C88.8891 85.3646 90.1829 85.8575 91.779 85.8575Z" fill="#40CC8B"/>
<path d="M91.9166 84.7566C92.0686 84.7566 92.1918 84.6949 92.1918 84.6189C92.1918 84.5429 92.0686 84.4813 91.9166 84.4813C91.7646 84.4813 91.6414 84.5429 91.6414 84.6189C91.6414 84.6949 91.7646 84.7566 91.9166 84.7566Z" fill="#E6E6E6"/>
<path d="M93.2162 84.7566C93.3682 84.7566 93.4914 84.6949 93.4914 84.6189C93.4914 84.5429 93.3682 84.4813 93.2162 84.4813C93.0642 84.4813 92.941 84.5429 92.941 84.6189C92.941 84.6949 93.0642 84.7566 93.2162 84.7566Z" fill="#E6E6E6"/>
<path d="M92.5663 85.0815C92.7183 85.0815 92.8416 85.0199 92.8416 84.9439C92.8416 84.8679 92.7183 84.8063 92.5663 84.8063C92.4143 84.8063 92.2911 84.8679 92.2911 84.9439C92.2911 85.0199 92.4143 85.0815 92.5663 85.0815Z" fill="#E6E6E6"/>
<path d="M89.9672 85.0815C90.1192 85.0815 90.2425 85.0199 90.2425 84.9439C90.2425 84.8679 90.1192 84.8063 89.9672 84.8063C89.8152 84.8063 89.692 84.8679 89.692 84.9439C89.692 85.0199 89.8152 85.0815 89.9672 85.0815Z" fill="#E6E6E6"/>
<path d="M90.617 84.7566C90.769 84.7566 90.8923 84.6949 90.8923 84.6189C90.8923 84.5429 90.769 84.4813 90.617 84.4813C90.465 84.4813 90.3418 84.5429 90.3418 84.6189C90.3418 84.6949 90.465 84.7566 90.617 84.7566Z" fill="#E6E6E6"/>
<path d="M91.2668 85.244C91.4188 85.244 91.5421 85.1824 91.5421 85.1064C91.5421 85.0304 91.4188 84.9688 91.2668 84.9688C91.1148 84.9688 90.9916 85.0304 90.9916 85.1064C90.9916 85.1824 91.1148 85.244 91.2668 85.244Z" fill="#E6E6E6"/>
</g>
<defs>
<clipPath id="clip0">
<rect width="100" height="103.693" fill="white"/>
</clipPath>
</defs>
</svg>
