<svg width="24" height="24" viewBox="0 0 24 24" fill="none" xmlns="http://www.w3.org/2000/svg">
<path d="M13.9758 7.34063C11.5055 6.13594 8.60862 6.84844 6.93518 8.87812L9.52268 11.4656C9.818 11.7609 9.818 12.2344 9.52268 12.525C9.37737 12.6703 9.18518 12.7453 8.993 12.7453C8.80081 12.7453 8.60862 12.6703 8.46331 12.525L6.11018 10.1719L0.105498 22.4859C-0.0304395 22.7672 -0.0398145 23.1094 0.105498 23.4094C0.358623 23.9297 0.991435 24.1453 1.51175 23.8922L7.77425 20.8359L5.468 18.5297C5.17268 18.2391 5.17268 17.7609 5.468 17.4703C5.76331 17.1797 6.23675 17.1797 6.52737 17.4703L9.19925 20.1422L13.9805 17.8078C15.1055 17.2594 16.0664 16.3406 16.6571 15.1312C18.068 12.2391 16.868 8.75156 13.9758 7.34063ZM18.293 5.70469C19.2071 3.79687 18.7336 1.54219 16.8727 0C14.5149 1.95469 14.4117 5.03906 16.5024 7.12031L16.8774 7.49531C18.9586 9.58594 22.0477 9.48281 23.9977 7.125C22.4555 5.26406 20.2008 4.79062 18.293 5.70469Z" fill="#344052"/>
</svg>
