<svg width="24" height="24" viewBox="0 0 24 24" fill="none" xmlns="http://www.w3.org/2000/svg">
<path d="M11.625 0.375C5.20312 0.375 0 5.57812 0 12C0 18.4219 5.20312 23.625 11.625 23.625C18.0469 23.625 23.25 18.4219 23.25 12C23.25 5.57812 18.0469 0.375 11.625 0.375ZM6.375 9.75C6.375 8.92031 7.04531 8.25 7.875 8.25C8.70469 8.25 9.375 8.92031 9.375 9.75C9.375 10.5797 8.70469 11.25 7.875 11.25C7.04531 11.25 6.375 10.5797 6.375 9.75ZM11.625 19.5C9.97031 19.5 8.625 18.1547 8.625 16.5C8.625 14.8453 9.97031 13.5 11.625 13.5C13.2797 13.5 14.625 14.8453 14.625 16.5C14.625 18.1547 13.2797 19.5 11.625 19.5ZM15.375 11.25C14.5453 11.25 13.875 10.5797 13.875 9.75C13.875 8.92031 14.5453 8.25 15.375 8.25C16.2047 8.25 16.875 8.92031 16.875 9.75C16.875 10.5797 16.2047 11.25 15.375 11.25Z" fill="#344052"/>
</svg>
