<svg width="25" height="24" viewBox="0 0 25 24" fill="none" xmlns="http://www.w3.org/2000/svg">
<path d="M14.1922 7.34063C11.6836 6.13594 8.74188 6.84844 7.04254 8.87812L9.67009 11.4656C9.96998 11.7609 9.96998 12.2344 9.67009 12.525C9.52253 12.6703 9.32737 12.7453 9.13221 12.7453C8.93705 12.7453 8.74188 12.6703 8.59432 12.525L6.20477 10.1719L0.107131 22.4859C-0.0309107 22.7672 -0.0404308 23.1094 0.107131 23.4094C0.364174 23.9297 1.00678 24.1453 1.53515 23.8922L7.89459 20.8359L5.55264 18.5297C5.25276 18.2391 5.25276 17.7609 5.55264 17.4703C5.85253 17.1797 6.33329 17.1797 6.62842 17.4703L9.34165 20.1422L14.1969 17.8078C15.3393 17.2594 16.3151 16.3406 16.9149 15.1312C18.3477 12.2391 17.1291 8.75156 14.1922 7.34063ZM18.5762 5.70469C19.5044 3.79687 19.0236 1.54219 17.1339 0C14.7396 1.95469 14.6348 5.03906 16.7578 7.12031L17.1386 7.49531C19.2521 9.58594 22.389 9.48281 24.3692 7.125C22.8031 5.26406 20.5135 4.79062 18.5762 5.70469Z" fill="#40CC8B"/>
</svg>
