<svg width="24" height="24" viewBox="0 0 24 24" fill="none" xmlns="http://www.w3.org/2000/svg">
<path d="M11.625 0C5.20453 0 0 5.20453 0 11.625C0 18.0455 5.20453 23.25 11.625 23.25C18.0455 23.25 23.25 18.0455 23.25 11.625C23.25 5.20453 18.0455 0 11.625 0ZM15.4823 16.7625C15.2995 16.9444 15.1078 17.1352 14.9522 17.2913C14.812 17.4319 14.7131 17.6053 14.663 17.7933C14.5922 18.0586 14.535 18.3267 14.4394 18.5841L13.6242 20.7802C12.9792 20.9208 12.3117 21 11.625 21V19.7166C11.7042 19.125 11.2669 18.0169 10.5642 17.3142C10.283 17.033 10.125 16.6514 10.125 16.2534V14.753C10.125 14.2073 9.83109 13.7058 9.35344 13.4419C8.67984 13.0692 7.72172 12.5484 7.06547 12.218C6.52734 11.947 6.02953 11.602 5.58187 11.1984L5.54437 11.1647C5.22425 10.8757 4.94002 10.5493 4.69781 10.1925C4.25812 9.54703 3.54187 8.48531 3.07641 7.79531C4.03594 5.6625 5.76516 3.94969 7.91391 3.01922L9.03938 3.58219C9.53813 3.83156 10.125 3.46922 10.125 2.91141V2.38172C10.4995 2.32125 10.8806 2.28281 11.2683 2.26828L12.5948 3.59484C12.8878 3.88781 12.8878 4.36266 12.5948 4.65562L12.375 4.875L11.8903 5.35969C11.7441 5.50594 11.7441 5.74359 11.8903 5.88984L12.1102 6.10969C12.2564 6.25594 12.2564 6.49359 12.1102 6.63984L11.7352 7.01484C11.6647 7.08512 11.5693 7.12457 11.4698 7.12453H11.0484C10.9509 7.12453 10.8572 7.1625 10.7869 7.23094L10.3219 7.68328C10.2649 7.73879 10.227 7.81097 10.2137 7.88941C10.2004 7.96784 10.2123 8.04848 10.2478 8.11969L10.9786 9.58172C11.1033 9.83109 10.9219 10.1245 10.6434 10.1245H10.3791C10.2886 10.1245 10.2014 10.0917 10.1334 10.0327L9.69844 9.65484C9.6 9.56945 9.48103 9.51114 9.35323 9.48566C9.22542 9.46019 9.09319 9.46841 8.96953 9.50953L7.50844 9.99656C7.39689 10.0338 7.29987 10.1051 7.23114 10.2005C7.1624 10.2959 7.12543 10.4105 7.12547 10.5281C7.12547 10.7405 7.24547 10.9341 7.43531 11.0292L7.95469 11.2889C8.39578 11.5097 8.88234 11.6245 9.37547 11.6245C9.86859 11.6245 10.4344 12.9037 10.8755 13.1245H14.0044C14.4023 13.1245 14.7834 13.2825 15.0652 13.5637L15.7069 14.2055C15.975 14.4737 16.1255 14.8374 16.1255 15.2166C16.1254 15.5039 16.0685 15.7884 15.9581 16.0537C15.8478 16.319 15.6861 16.5599 15.4823 16.7625ZM19.5469 12.4805C19.2755 12.4125 19.0387 12.2461 18.8836 12.0131L18.0408 10.7489C17.9175 10.5642 17.8516 10.3471 17.8516 10.125C17.8516 9.90291 17.9175 9.6858 18.0408 9.50109L18.9591 8.12391C19.0678 7.96125 19.2169 7.82906 19.3922 7.74188L20.0006 7.43766C20.6344 8.69953 21 10.1189 21 11.625C21 12.0314 20.9653 12.4294 20.9147 12.8222L19.5469 12.4805Z" fill="#344052"/>
</svg>
