<svg width="16" height="20" viewBox="0 0 16 20" fill="none" xmlns="http://www.w3.org/2000/svg">
<path d="M13.4106 13.13L15.3096 1H11.2477V0H7.18575V1H2.10835C0.991324 1 0.0773926 1.9 0.0773926 3V7C0.0773926 8.1 0.991324 9 2.10835 9H4.37287L5.02278 13.13C3.87529 14.05 3.12383 15.43 3.12383 17V18C3.12383 19.1 4.03776 20 5.15479 20H13.2786C14.3957 20 15.3096 19.1 15.3096 18V17C15.3096 15.43 14.5581 14.05 13.4106 13.13ZM2.10835 7V3H3.43863L4.06823 7H2.10835ZM9.21671 17C8.6582 17 8.20123 16.55 8.20123 16C8.20123 15.45 8.6582 15 9.21671 15C9.77522 15 10.2322 15.45 10.2322 16C10.2322 16.55 9.77522 17 9.21671 17ZM11.5422 12H6.90142L5.4899 3H12.9435L11.5422 12Z" fill="#40CC8B"/>
</svg>
