<svg width="25" height="24" viewBox="0 0 25 24" fill="none" xmlns="http://www.w3.org/2000/svg">
<path d="M4.95046 10.5H1.14241C0.511469 10.5 0 11.0037 0 11.625V22.875C0 23.4963 0.511469 24 1.14241 24H4.95046C5.58141 24 6.09288 23.4963 6.09288 22.875V11.625C6.09288 11.0037 5.58141 10.5 4.95046 10.5ZM3.04644 22.125C2.41549 22.125 1.90402 21.6213 1.90402 21C1.90402 20.3787 2.41549 19.875 3.04644 19.875C3.67739 19.875 4.18885 20.3787 4.18885 21C4.18885 21.6213 3.67739 22.125 3.04644 22.125ZM18.2786 3.81806C18.2786 5.80631 17.0424 6.92156 16.6946 8.25H21.5367C23.1264 8.25 24.364 9.55059 24.3715 10.9733C24.3755 11.8142 24.0123 12.7194 23.4462 13.2795L23.4409 13.2846C23.9091 14.3785 23.833 15.9113 22.9979 17.0097C23.4111 18.2235 22.9946 19.7146 22.2181 20.514C22.4227 21.3389 22.3249 22.0409 21.9254 22.6061C20.9539 23.9806 18.546 24 16.5098 24L16.3743 24C14.0758 23.9992 12.1947 23.175 10.6832 22.5128C9.92363 22.1801 8.9305 21.7681 8.17698 21.7545C7.86567 21.7489 7.6161 21.4987 7.6161 21.1921V11.1716C7.6161 11.0216 7.67712 10.8777 7.78546 10.7722C9.67111 8.93733 10.4819 6.99469 12.0275 5.47013C12.7322 4.77488 12.9884 3.72469 13.2362 2.70909C13.4479 1.84186 13.8907 0 14.8514 0C15.9938 0 18.2786 0.375 18.2786 3.81806Z" fill="#40CC8B"/>
</svg>
